<?xml version="1.0" encoding="iso-8859-1"?>
<!-- Generator: Adobe Illustrator 25.2.0, SVG Export Plug-In . SVG Version: 6.00 Build 0)  -->
<svg version="1.1" id="Camada_1" xmlns="http://www.w3.org/2000/svg" xmlns:xlink="http://www.w3.org/1999/xlink" x="0px" y="0px"
	 viewBox="0 0 3000 3000" style="enable-background:new 0 0 3000 3000;" xml:space="preserve">
<rect y="3020" style="fill:#272727;" width="3000" height="3000"/>
<rect x="3020" y="0" style="fill:#6921A3;" width="3000" height="3000"/>
<g>
	<polygon style="fill:#9437D1;" points="1202.126,1607.965 1346.513,1607.872 1418.627,1482.783 1274.24,1482.875 	"/>
	<polygon style="fill:#A860E2;" points="1202.126,1607.965 1274.4,1732.961 1418.787,1732.869 1346.513,1607.872 	"/>
	<polygon style="fill:#9437D1;" points="1249.244,1374.369 1473.102,1374.226 1584.906,1180.288 1361.049,1180.431 	"/>
	<polygon style="fill:#A860E2;" points="1249.244,1374.369 1361.297,1568.163 1585.154,1568.02 1473.102,1374.226 	"/>
	<polygon style="fill:#9437D1;" points="1429.154,1663.246 1609.893,1663.13 1700.162,1506.548 1519.423,1506.664 	"/>
	<polygon style="fill:#A860E2;" points="1429.154,1663.246 1519.623,1819.712 1700.362,1819.596 1609.893,1663.13 	"/>
	<polygon style="fill:#A860E2;" points="1625.289,1314.852 1668.483,1389.556 1754.776,1389.501 1711.581,1314.797 	"/>
	<polygon style="fill:#9437D1;" points="1625.289,1314.852 1711.581,1314.797 1754.68,1240.038 1668.387,1240.093 	"/>
</g>
<g>
	<polygon style="fill:#9437D1;" points="4222.126,1607.965 4366.513,1607.872 4438.627,1482.783 4294.24,1482.875 	"/>
	<polygon style="fill:#A860E2;" points="4222.126,1607.965 4294.399,1732.961 4438.787,1732.869 4366.513,1607.872 	"/>
	<polygon style="fill:#9437D1;" points="4269.244,1374.369 4493.102,1374.226 4604.906,1180.288 4381.049,1180.431 	"/>
	<polygon style="fill:#A860E2;" points="4269.244,1374.369 4381.297,1568.163 4605.154,1568.02 4493.102,1374.226 	"/>
	<polygon style="fill:#9437D1;" points="4449.154,1663.246 4629.893,1663.13 4720.162,1506.548 4539.423,1506.664 	"/>
	<polygon style="fill:#A860E2;" points="4449.154,1663.246 4539.624,1819.712 4720.362,1819.596 4629.893,1663.13 	"/>
	<polygon style="fill:#A860E2;" points="4645.289,1314.852 4688.483,1389.556 4774.775,1389.501 4731.582,1314.797 	"/>
	<polygon style="fill:#9437D1;" points="4645.289,1314.852 4731.582,1314.797 4774.68,1240.038 4688.387,1240.093 	"/>
</g>
<g>
	<polygon style="fill:#9437D1;" points="1201.314,4630.362 1346.531,4630.269 1419.059,4504.461 1273.842,4504.554 	"/>
	<polygon style="fill:#A860E2;" points="1201.314,4630.362 1274.003,4756.076 1419.22,4755.983 1346.531,4630.269 	"/>
	<polygon style="fill:#9437D1;" points="1248.703,4395.424 1473.846,4395.28 1586.293,4200.229 1361.15,4200.373 	"/>
	<polygon style="fill:#A860E2;" points="1248.703,4395.424 1361.399,4590.332 1586.542,4590.188 1473.846,4395.28 	"/>
	<polygon style="fill:#9437D1;" points="1429.154,4683.246 1609.893,4683.13 1700.162,4526.548 1519.423,4526.664 	"/>
	<polygon style="fill:#A860E2;" points="1429.154,4683.246 1519.623,4839.712 1700.362,4839.596 1609.893,4683.13 	"/>
	<polygon style="fill:#A860E2;" points="1626.907,4335.566 1670.349,4410.699 1757.138,4410.643 1713.696,4335.51 	"/>
	<polygon style="fill:#9437D1;" points="1626.907,4335.566 1713.696,4335.51 1757.042,4260.322 1670.253,4260.377 	"/>
</g>
</svg>
